<svg width="22" height="22" viewBox="0 0 22 22" fill="none" xmlns="http://www.w3.org/2000/svg">
<path d="M17.8723 7.32324L11 14.0222L4.12776 7.32324C4.00498 7.20331 3.84015 7.13617 3.66851 7.13617C3.49688 7.13617 3.33205 7.20331 3.20926 7.32324C3.14981 7.38149 3.10258 7.45102 3.07034 7.52776C3.03809 7.60449 3.02148 7.68689 3.02148 7.77012C3.02148 7.85335 3.03809 7.93575 3.07034 8.01248C3.10258 8.08921 3.14981 8.15874 3.20926 8.21699L10.5201 15.345C10.6485 15.4701 10.8207 15.5402 11 15.5402C11.1793 15.5402 11.3515 15.4701 11.4799 15.345L18.7908 8.21837C18.8506 8.16007 18.8982 8.09038 18.9307 8.01339C18.9632 7.9364 18.9799 7.85368 18.9799 7.77012C18.9799 7.68655 18.9632 7.60384 18.9307 7.52685C18.8982 7.44986 18.8506 7.38016 18.7908 7.32187C18.668 7.20194 18.5032 7.1348 18.3315 7.1348C18.1599 7.1348 17.995 7.20194 17.8723 7.32187V7.32324Z" fill="#968F82"/>
</svg>
