<svg width="7" height="7" viewBox="0 0 7 7" fill="none" xmlns="http://www.w3.org/2000/svg">
<g clip-path="url(#clip0_71_659)">
<path d="M5.67589 2.32601L3.49313 4.45375L1.31036 2.32601C1.27136 2.28792 1.21901 2.2666 1.16449 2.2666C1.10998 2.2666 1.05763 2.28792 1.01863 2.32601C0.999744 2.34452 0.984742 2.3666 0.974501 2.39097C0.964259 2.41534 0.958984 2.44151 0.958984 2.46795C0.958984 2.49439 0.964259 2.52056 0.974501 2.54493C0.984742 2.5693 0.999744 2.59139 1.01863 2.60989L3.34071 4.87388C3.38149 4.91363 3.43618 4.93588 3.49313 4.93588C3.55007 4.93588 3.60476 4.91363 3.64554 4.87388L5.96762 2.61032C5.98664 2.59181 6.00176 2.56967 6.01208 2.54522C6.0224 2.52076 6.02771 2.49449 6.02771 2.46795C6.02771 2.44141 6.0224 2.41514 6.01208 2.39068C6.00176 2.36623 5.98664 2.34409 5.96762 2.32558C5.92863 2.28748 5.87627 2.26616 5.82176 2.26616C5.76724 2.26616 5.71489 2.28748 5.67589 2.32558V2.32601Z" fill="#968F82"/>
</g>
<defs>
<clipPath id="clip0_71_659">
<rect width="6.98764" height="6.98764" rx="1.5881" fill="white"/>
</clipPath>
</defs>
</svg>
