<svg width="69" height="69" viewBox="0 0 69 69" fill="none" xmlns="http://www.w3.org/2000/svg">
<circle cx="34.5" cy="34.5" r="33.0161" fill="#B9AC92" stroke="#412F0E" stroke-width="2.96774"/>
<path d="M20.5626 23.1618L13.0294 46.7833H6.05714L16.8561 17.612H21.2639L20.5626 23.1618ZM26.8136 46.7833L19.2603 23.1618L18.479 17.612H22.9468L33.7859 46.7833H26.8136ZM26.4931 35.9242V40.973H11.2863V35.9242H26.4931Z" fill="#412F0E"/>
<path d="M22.0723 18.9659L14.26 47.8714" stroke="#B9AC92" stroke-width="3.73019" stroke-linecap="square"/>
<path d="M48.4907 23.8172L41.1492 46.8374H34.3545L44.8785 18.4088H49.1741L48.4907 23.8172ZM54.5825 46.8374L47.2215 23.8172L46.4601 18.4088H50.8142L61.3773 46.8374H54.5825ZM54.2701 36.2548V41.1751H39.4505V36.2548H54.2701Z" fill="#412F0E"/>
<path d="M49.9619 19.7608L42.3485 47.9304" stroke="#B9AC92" stroke-width="3.63522" stroke-linecap="square"/>
</svg>
